<?xml version="1.0" standalone="no"?>
<!DOCTYPE svg PUBLIC "-//W3C//DTD SVG 20010904//EN"
 "http://www.w3.org/TR/2001/REC-SVG-20010904/DTD/svg10.dtd">
<svg version="1.0" xmlns="http://www.w3.org/2000/svg"
 width="1200.000000pt" height="1200.000000pt" viewBox="0 0 1200.000000 1200.000000"
 preserveAspectRatio="xMidYMid meet">

<g transform="translate(0.000000,1200.000000) scale(0.100000,-0.100000)"
fill="#000000" stroke="none">
<path d="M5846 7578 c-12 -37 -13 -59 -5 -63 5 -3 60 -7 123 -8 74 -1 119 -6
127 -14 12 -12 6 -46 -36 -193 -16 -56 -43 -153 -55 -200 -5 -19 -16 -60 -25
-90 -8 -30 -53 -197 -100 -370 -47 -173 -92 -342 -101 -375 -62 -226 -95 -296
-164 -341 -33 -22 -56 -28 -128 -33 -82 -6 -87 -7 -100 -34 -7 -15 -10 -32 -7
-37 4 -6 128 -10 335 -10 l329 0 16 30 c9 17 13 35 10 40 -3 6 -34 10 -68 10
-89 0 -134 15 -152 50 -34 66 -24 112 175 841 104 382 194 701 198 709 5 8 15
15 23 15 12 0 15 -135 19 -860 l5 -860 35 0 c40 0 11 -44 265 415 89 162 174
315 187 340 14 25 73 131 130 235 58 105 114 206 125 225 11 19 75 136 143
260 117 214 144 255 160 245 6 -4 -69 -292 -175 -675 -8 -30 -40 -147 -70
-260 -61 -229 -82 -304 -100 -370 -7 -25 -20 -74 -30 -110 -41 -153 -50 -174
-75 -187 -15 -8 -65 -13 -127 -13 -93 0 -103 -2 -113 -21 -6 -11 -10 -29 -8
-40 3 -20 10 -20 368 -19 334 0 366 2 378 18 7 9 11 26 10 37 -3 18 -12 20
-110 25 -66 3 -112 10 -119 17 -13 13 -8 48 26 163 16 57 30 107 115 425 64
239 80 296 115 425 7 25 20 72 29 105 97 359 117 431 130 450 18 28 63 37 167
34 44 -1 84 2 89 7 5 5 10 23 12 39 l3 30 -287 3 -286 2 -20 -27 c-10 -16 -40
-68 -66 -117 -26 -50 -67 -124 -90 -165 -24 -42 -65 -116 -91 -166 -27 -49
-58 -108 -70 -130 -12 -22 -104 -191 -205 -375 -100 -184 -190 -346 -199 -360
-15 -23 -16 24 -21 655 l-5 680 -318 3 c-249 2 -318 0 -321 -10z"/>
<path d="M8079 7563 c-18 -47 -3 -56 87 -54 93 2 130 -5 138 -26 3 -8 -5 -56
-19 -106 -14 -51 -32 -117 -40 -147 -8 -30 -53 -197 -100 -370 -47 -173 -92
-340 -100 -370 -9 -30 -20 -71 -25 -90 -5 -19 -16 -60 -24 -90 -8 -30 -35
-129 -60 -219 -25 -90 -52 -171 -61 -180 -12 -12 -43 -17 -131 -20 -109 -3
-116 -4 -126 -26 -25 -56 -30 -55 360 -55 385 0 379 -1 384 51 3 24 2 24 -104
29 -65 3 -112 10 -119 17 -13 13 -5 54 37 203 9 30 26 96 39 146 23 88 149
552 181 664 14 53 33 119 56 205 6 22 16 60 23 85 7 25 25 91 40 148 39 147
39 147 177 149 111 2 113 2 126 28 29 56 35 55 -363 55 l-365 0 -11 -27z"/>
<path d="M3100 7525 c-131 -18 -214 -39 -328 -81 -271 -102 -492 -253 -667
-459 -310 -363 -423 -825 -324 -1319 53 -266 194 -537 379 -730 253 -263 540
-417 940 -503 68 -14 131 -18 320 -18 210 0 246 2 339 23 577 129 943 513
1010 1059 8 62 23 100 110 276 76 153 117 223 161 275 l59 70 -92 -45 c-50
-25 -151 -64 -224 -88 -73 -24 -148 -53 -167 -64 -64 -40 -111 -122 -156 -271
-29 -96 -33 -125 -15 -110 7 6 27 15 43 20 30 8 31 7 21 -17 -12 -31 -12 -124
1 -143 7 -12 10 -11 16 5 17 50 46 104 59 109 38 14 49 -95 17 -167 -33 -75
-87 -87 -164 -38 -129 82 -188 267 -124 389 10 19 15 36 13 39 -3 2 -61 8
-129 13 -130 8 -184 24 -228 64 -41 39 -166 116 -256 157 -120 56 -274 100
-549 158 -297 63 -395 91 -512 146 -112 53 -157 83 -251 170 l-73 68 26 -59
c36 -84 130 -220 195 -282 157 -152 328 -235 639 -308 146 -35 263 -71 345
-107 62 -28 66 -32 45 -40 -52 -19 -221 -20 -308 -3 -92 19 -136 38 -195 85
-21 17 -40 31 -43 31 -10 0 32 -79 63 -117 98 -119 290 -206 559 -250 117 -20
103 -30 -43 -32 -78 -1 -142 7 -267 34 -27 5 85 -100 157 -148 123 -81 277
-113 478 -97 58 5 107 7 108 5 8 -8 -79 -57 -124 -71 -26 -8 -85 -17 -131 -21
-80 -6 -82 -6 -55 -20 96 -51 302 -101 358 -87 32 8 30 1 -11 -56 -66 -90
-168 -175 -267 -224 -113 -56 -205 -76 -343 -76 -209 0 -377 61 -559 201 l-28
22 13 -24 c37 -65 149 -163 252 -220 34 -18 45 -29 32 -29 -37 0 -263 59 -342
90 -355 137 -529 404 -564 863 -6 83 -13 158 -15 166 -9 28 -23 -5 -55 -129
-27 -105 -33 -144 -33 -245 -1 -66 2 -139 7 -163 10 -56 0 -50 -61 43 -105
156 -147 320 -146 560 1 231 40 404 130 588 57 115 94 169 168 245 63 65 61
73 -13 48 -62 -23 -152 -88 -215 -157 -31 -34 -56 -58 -56 -52 0 24 53 162 86
222 74 136 206 287 326 371 72 51 198 114 282 139 67 21 225 44 249 36 6 -2
45 -6 86 -9 74 -6 74 -6 56 14 -40 44 -120 73 -221 78 -59 3 -90 8 -82 13 26
18 226 78 328 100 81 17 140 23 255 23 143 1 153 0 220 -28 39 -16 86 -43 105
-60 33 -30 27 -15 -15 33 l-20 23 35 -7 c49 -9 384 -121 420 -140 49 -26 34
-10 -34 34 -263 170 -667 253 -1006 206z"/>
<path d="M5654 5266 c-10 -25 5 -36 52 -36 l44 0 0 -325 c0 -373 4 -396 82
-472 62 -61 125 -86 218 -86 121 0 218 56 273 158 21 38 22 53 25 382 l3 342
47 3 c39 3 47 6 47 23 0 19 -7 20 -120 20 -113 0 -120 -1 -120 -20 0 -17 8
-20 53 -23 l53 -3 -3 -322 c-3 -314 -4 -323 -27 -375 -30 -66 -76 -107 -143
-127 -65 -19 -111 -19 -176 0 -67 20 -113 61 -143 127 -23 52 -24 62 -27 375
l-4 322 54 3 c45 3 53 6 53 23 0 19 -8 20 -118 23 -96 2 -118 0 -123 -12z"/>
<path d="M7324 5039 c-22 -25 -9 -54 26 -54 35 0 48 29 26 54 -24 26 -28 26
-52 0z"/>
<path d="M6840 4861 c-48 -10 -89 -33 -124 -70 -17 -17 -33 -31 -37 -31 -4 0
-9 21 -11 48 l-3 47 -60 0 c-53 0 -60 -2 -60 -20 0 -16 8 -21 43 -23 l42 -3 0
-204 0 -204 -47 -3 c-40 -3 -48 -6 -48 -23 0 -19 7 -20 120 -20 113 0 120 1
120 20 0 17 -8 20 -47 23 l-48 3 0 135 c0 90 4 145 14 167 33 79 150 134 230
107 64 -21 71 -42 74 -236 l4 -173 -54 -3 c-45 -3 -53 -6 -53 -23 0 -19 7 -20
120 -20 113 0 120 1 120 20 0 17 -8 20 -47 23 l-48 3 0 178 c0 168 -1 180 -22
211 -43 63 -102 86 -178 71z"/>
<path d="M8523 4860 c-59 -12 -93 -32 -141 -83 -72 -80 -89 -194 -42 -287 25
-49 98 -115 146 -131 58 -19 135 -15 187 10 58 28 74 46 57 66 -10 12 -15 12
-38 -5 -42 -31 -128 -45 -182 -30 -42 11 -130 83 -130 107 0 5 88 44 195 87
107 43 200 85 206 92 23 28 -54 126 -126 161 -32 16 -87 21 -132 13z m123 -59
c40 -18 84 -63 84 -85 0 -9 -336 -151 -358 -151 -4 0 -8 14 -10 32 -11 113 90
222 208 222 19 0 53 -8 76 -18z"/>
<path d="M9932 4859 c-78 -15 -155 -79 -188 -157 -23 -55 -20 -154 6 -207 25
-51 87 -111 138 -132 52 -22 138 -20 192 4 55 24 78 49 62 65 -9 9 -21 6 -50
-10 -21 -11 -56 -24 -78 -28 -77 -12 -176 33 -208 94 l-14 27 197 79 c108 44
202 84 208 89 16 11 -3 50 -49 102 -55 64 -134 90 -216 74z m123 -58 c41 -19
81 -55 87 -79 3 -15 -350 -164 -366 -155 -14 9 1 97 23 142 48 93 164 135 256
92z"/>
<path d="M7224 4846 c-10 -26 6 -36 57 -36 l49 0 0 -204 0 -205 -52 -3 c-45
-3 -53 -6 -53 -23 0 -19 7 -20 120 -20 113 0 120 1 120 20 0 17 -8 20 -47 23
l-48 3 -2 227 -3 227 -68 3 c-52 2 -69 0 -73 -12z"/>
<path d="M7558 4853 c-3 -4 -4 -17 -4 -28 1 -17 9 -20 51 -23 l51 -3 117 -235
c67 -135 122 -232 128 -229 5 4 61 110 124 235 l114 229 43 3 c35 2 43 7 43
23 0 19 -7 20 -100 20 -93 0 -100 -1 -100 -20 0 -15 8 -21 31 -25 l31 -5 -96
-193 -95 -193 -97 193 -97 193 42 5 c36 4 41 8 41 30 0 25 0 25 -112 28 -61 1
-113 -1 -115 -5z"/>
<path d="M8894 4846 c-10 -25 5 -36 47 -36 l39 0 0 -204 0 -205 -47 -3 c-40
-3 -48 -6 -48 -23 0 -19 7 -20 120 -20 113 0 120 1 120 20 0 17 -8 20 -47 23
l-48 3 0 136 c0 116 3 143 20 178 22 46 80 85 140 95 22 3 36 12 38 23 10 50
-95 23 -160 -42 l-47 -47 -3 55 -3 56 -58 3 c-44 2 -59 -1 -63 -12z"/>
<path d="M9432 4843 c-47 -23 -75 -67 -76 -120 -1 -39 4 -49 35 -77 21 -20 64
-43 104 -56 37 -12 76 -31 86 -41 21 -21 25 -78 9 -110 -24 -43 -110 -62 -178
-38 -26 9 -31 16 -34 47 -2 25 -8 37 -18 37 -11 0 -16 -13 -18 -47 -3 -44 -1
-49 28 -67 131 -79 309 22 276 155 -11 42 -60 80 -133 105 -37 12 -77 32 -90
45 -31 31 -30 78 2 110 22 22 32 25 88 22 l62 -3 5 -40 c4 -32 9 -40 25 -40
17 0 20 7 20 50 0 47 -2 51 -35 67 -44 22 -115 23 -158 1z"/>
</g>
</svg>
